# xmcd
#
# Track frame offsets:
#	150
#	18360
#	36266
#	52861
#	71269
#	88957
#	105950
#	124546
#	142516
#	158828
#	176072
#	193056
#	213393
#	230453
#	248072
#	264454
#	283461
#	301264
#	319180
#	337311
#
# Disc length: 4724 seconds
#
# Revision: 0
# Processed by: cddbd v1.5.2PL0 Copyright (c) Steve Scherf et al.
# Submitted via: EasyCDDAExtractor 12.0.4.1
#
DISCID=1a127214
DTITLE=Bad Boys Blue - Greatest Hits - The Single Hits
DYEAR=2008
DGENRE=Pop
TTITLE0=L.O.V.E in my car
TTITLE1=You're a woman
TTITLE2=Pretty young girl
TTITLE3=I wanna hear your heartbeat (sunday girl)
TTITLE4=Kisses and Tears
TTITLE5=Love really hurts without you
TTITLE6=Come back and stay
TTITLE7=Gimme gimme your lovin' (Little lady)
TTITLE8=A world without you-Michelle (radio edit)
TTITLE9=Don't walk away Suzanne
TTITLE10=Lovers in the sand
TTITLE11=Hungry for love
TTITLE12=Lady in Black
TTITLE13=A train to nowhere
TTITLE14=How I need you
TTITLE15=Queen of my hearts (7'' mix)
TTITLE16=Jungle of my heart (7'' mix)
TTITLE17=I totally miss you  (7'' mix)
TTITLE18=Svae your love (7'' mix)
TTITLE19=A love like this ( radio edit)
EXTD=
EXTT0=
EXTT1=
EXTT2=
EXTT3=
EXTT4=
EXTT5=
EXTT6=
EXTT7=
EXTT8=
EXTT9=
EXTT10=
EXTT11=
EXTT12=
EXTT13=
EXTT14=
EXTT15=
EXTT16=
EXTT17=
EXTT18=
EXTT19=
PLAYORDER=
